<mxfile host="app.diagrams.net" modified="2023-09-23T07:45:48.623Z" agent="Mozilla/5.0 (Windows NT 10.0; Win64; x64) AppleWebKit/537.36 (KHTML, like Gecko) Chrome/117.0.0.0 Safari/537.36" etag="AOvcnkgJfQGJgiWZHlGI" version="21.8.1" type="github">
  <diagram name="Page-1" id="BIwb83D_4yYaN1CMs0U0">
    <mxGraphModel dx="1434" dy="758" grid="1" gridSize="10" guides="1" tooltips="1" connect="1" arrows="1" fold="1" page="1" pageScale="1" pageWidth="850" pageHeight="1100" math="0" shadow="0">
      <root>
        <mxCell id="0" />
        <mxCell id="1" parent="0" />
        <mxCell id="RMFDfJgZtc8qUu2WAX96-1" value="&lt;div&gt;Requirements Matter&lt;b&gt;&lt;br&gt;&lt;/b&gt;&lt;/div&gt;" style="rounded=0;whiteSpace=wrap;html=1;fillColor=#dae8fc;strokeColor=#6c8ebf;" vertex="1" parent="1">
          <mxGeometry x="130" y="220" width="160" height="60" as="geometry" />
        </mxCell>
        <mxCell id="RMFDfJgZtc8qUu2WAX96-2" value="&lt;div&gt;Users Are Central&lt;b&gt;&lt;br&gt;&lt;/b&gt;&lt;/div&gt;" style="rounded=0;whiteSpace=wrap;html=1;fillColor=#d5e8d4;strokeColor=#82b366;" vertex="1" parent="1">
          <mxGeometry x="130" y="320" width="160" height="60" as="geometry" />
        </mxCell>
        <mxCell id="RMFDfJgZtc8qUu2WAX96-3" value="Data Is Fundamental" style="rounded=0;whiteSpace=wrap;html=1;fillColor=#ffe6cc;strokeColor=#d79b00;" vertex="1" parent="1">
          <mxGeometry x="130" y="430" width="160" height="60" as="geometry" />
        </mxCell>
        <mxCell id="RMFDfJgZtc8qUu2WAX96-4" value="APIs Drive Interaction" style="rounded=0;whiteSpace=wrap;html=1;fillColor=#f8cecc;strokeColor=#b85450;" vertex="1" parent="1">
          <mxGeometry x="130" y="520" width="160" height="60" as="geometry" />
        </mxCell>
        <mxCell id="RMFDfJgZtc8qUu2WAX96-5" value="Components Shape Systems" style="rounded=0;whiteSpace=wrap;html=1;fillColor=#e1d5e7;strokeColor=#9673a6;" vertex="1" parent="1">
          <mxGeometry x="440" y="230" width="160" height="60" as="geometry" />
        </mxCell>
        <mxCell id="RMFDfJgZtc8qUu2WAX96-6" value="Architect for Success&amp;nbsp;&lt;br&gt;(High level design)" style="whiteSpace=wrap;html=1;fillColor=#dae8fc;strokeColor=#6c8ebf;" vertex="1" parent="1">
          <mxGeometry x="440" y="330" width="160" height="60" as="geometry" />
        </mxCell>
        <mxCell id="RMFDfJgZtc8qUu2WAX96-8" value="Sweat the Details&lt;br&gt;(Low level design)" style="rounded=0;whiteSpace=wrap;html=1;fillColor=#d5e8d4;strokeColor=#82b366;" vertex="1" parent="1">
          <mxGeometry x="440" y="430" width="160" height="60" as="geometry" />
        </mxCell>
        <mxCell id="RMFDfJgZtc8qUu2WAX96-9" value="Scale and Perform" style="rounded=0;whiteSpace=wrap;html=1;fillColor=#fff2cc;strokeColor=#d6b656;" vertex="1" parent="1">
          <mxGeometry x="440" y="530" width="170" height="60" as="geometry" />
        </mxCell>
        <mxCell id="RMFDfJgZtc8qUu2WAX96-10" value="Handle Errors Gracefully" style="rounded=0;whiteSpace=wrap;html=1;fillColor=#e1d5e7;strokeColor=#9673a6;" vertex="1" parent="1">
          <mxGeometry x="305" y="630" width="120" height="60" as="geometry" />
        </mxCell>
        <mxCell id="RMFDfJgZtc8qUu2WAX96-11" value="" style="endArrow=classic;html=1;rounded=0;" edge="1" parent="1">
          <mxGeometry relative="1" as="geometry">
            <mxPoint x="290" y="259.5" as="sourcePoint" />
            <mxPoint x="390" y="259.5" as="targetPoint" />
          </mxGeometry>
        </mxCell>
        <mxCell id="RMFDfJgZtc8qUu2WAX96-12" value="" style="shape=message;html=1;outlineConnect=0;" vertex="1" parent="RMFDfJgZtc8qUu2WAX96-11">
          <mxGeometry width="20" height="14" relative="1" as="geometry">
            <mxPoint x="15" y="-99" as="offset" />
          </mxGeometry>
        </mxCell>
        <mxCell id="RMFDfJgZtc8qUu2WAX96-13" style="edgeStyle=orthogonalEdgeStyle;rounded=0;orthogonalLoop=1;jettySize=auto;html=1;exitX=0.5;exitY=0;exitDx=0;exitDy=0;entryX=1;entryY=0.5;entryDx=0;entryDy=0;" edge="1" parent="1" source="RMFDfJgZtc8qUu2WAX96-12" target="RMFDfJgZtc8qUu2WAX96-2">
          <mxGeometry relative="1" as="geometry" />
        </mxCell>
        <mxCell id="RMFDfJgZtc8qUu2WAX96-14" style="edgeStyle=orthogonalEdgeStyle;rounded=0;orthogonalLoop=1;jettySize=auto;html=1;exitX=0.5;exitY=1;exitDx=0;exitDy=0;entryX=1;entryY=0.75;entryDx=0;entryDy=0;" edge="1" parent="1" source="RMFDfJgZtc8qUu2WAX96-12" target="RMFDfJgZtc8qUu2WAX96-3">
          <mxGeometry relative="1" as="geometry" />
        </mxCell>
        <mxCell id="RMFDfJgZtc8qUu2WAX96-15" style="edgeStyle=orthogonalEdgeStyle;rounded=0;orthogonalLoop=1;jettySize=auto;html=1;exitX=0.85;exitY=0.95;exitDx=0;exitDy=0;exitPerimeter=0;" edge="1" parent="1" source="RMFDfJgZtc8qUu2WAX96-12">
          <mxGeometry relative="1" as="geometry">
            <mxPoint x="300" y="560" as="targetPoint" />
          </mxGeometry>
        </mxCell>
        <mxCell id="RMFDfJgZtc8qUu2WAX96-16" style="edgeStyle=orthogonalEdgeStyle;rounded=0;orthogonalLoop=1;jettySize=auto;html=1;exitX=0.5;exitY=1;exitDx=0;exitDy=0;entryX=0.75;entryY=0;entryDx=0;entryDy=0;" edge="1" parent="1" source="RMFDfJgZtc8qUu2WAX96-12" target="RMFDfJgZtc8qUu2WAX96-10">
          <mxGeometry relative="1" as="geometry" />
        </mxCell>
        <mxCell id="RMFDfJgZtc8qUu2WAX96-17" style="edgeStyle=orthogonalEdgeStyle;rounded=0;orthogonalLoop=1;jettySize=auto;html=1;exitX=1;exitY=0.5;exitDx=0;exitDy=0;entryX=0;entryY=0.5;entryDx=0;entryDy=0;" edge="1" parent="1" source="RMFDfJgZtc8qUu2WAX96-12" target="RMFDfJgZtc8qUu2WAX96-5">
          <mxGeometry relative="1" as="geometry" />
        </mxCell>
        <mxCell id="RMFDfJgZtc8qUu2WAX96-18" style="edgeStyle=orthogonalEdgeStyle;rounded=0;orthogonalLoop=1;jettySize=auto;html=1;exitX=0.5;exitY=1;exitDx=0;exitDy=0;entryX=0;entryY=0.5;entryDx=0;entryDy=0;" edge="1" parent="1" source="RMFDfJgZtc8qUu2WAX96-12" target="RMFDfJgZtc8qUu2WAX96-9">
          <mxGeometry relative="1" as="geometry" />
        </mxCell>
        <mxCell id="RMFDfJgZtc8qUu2WAX96-19" style="edgeStyle=orthogonalEdgeStyle;rounded=0;orthogonalLoop=1;jettySize=auto;html=1;exitX=0.15;exitY=0.05;exitDx=0;exitDy=0;exitPerimeter=0;entryX=0;entryY=0.5;entryDx=0;entryDy=0;" edge="1" parent="1" source="RMFDfJgZtc8qUu2WAX96-12" target="RMFDfJgZtc8qUu2WAX96-8">
          <mxGeometry relative="1" as="geometry" />
        </mxCell>
        <mxCell id="RMFDfJgZtc8qUu2WAX96-20" style="edgeStyle=orthogonalEdgeStyle;rounded=0;orthogonalLoop=1;jettySize=auto;html=1;exitX=0.5;exitY=1;exitDx=0;exitDy=0;entryX=0;entryY=0.5;entryDx=0;entryDy=0;" edge="1" parent="1" source="RMFDfJgZtc8qUu2WAX96-12" target="RMFDfJgZtc8qUu2WAX96-6">
          <mxGeometry relative="1" as="geometry" />
        </mxCell>
        <mxCell id="RMFDfJgZtc8qUu2WAX96-21" value="" style="image;html=1;image=img/lib/clip_art/people/Suit_Man_128x128.png" vertex="1" parent="1">
          <mxGeometry x="325" y="60" width="80" height="80" as="geometry" />
        </mxCell>
        <mxCell id="RMFDfJgZtc8qUu2WAX96-22" value="Architect&lt;br&gt;" style="text;html=1;align=center;verticalAlign=middle;resizable=0;points=[];autosize=1;strokeColor=none;fillColor=none;" vertex="1" parent="1">
          <mxGeometry x="390" y="80" width="70" height="30" as="geometry" />
        </mxCell>
      </root>
    </mxGraphModel>
  </diagram>
</mxfile>
